# xmcd
#
# Track frame offsets:
#	150
#	11767
#	22375
#	33572
#	43980
#	54447
#	65467
#	79387
#	90535
#	100792
#
# Disc length: 1535 seconds
#
# Revision: 1
# Processed by: cddbd v1.4PL0 Copyright (c) Steve Scherf et al.
# Submitted via: audiograbber 1.80.04
#
DISCID=8505fd0a
DTITLE=Patsy Cline - Classics Collection
DYEAR=1900
DGENRE=
TTITLE0=Lonely Street
TTITLE1=Lovesick Blues
TTITLE2=A Stranger In My Arms
TTITLE3=Walkin' Dream
TTITLE4=Too Many Secrets
TTITLE5=I Cried All The Way To The Alter
TTITLE6=A Church, A Courtroom and Then Goodbye
TTITLE7=I Can't Forget
TTITLE8=Three Cigarettes In An Ashtray
TTITLE9=Then You'll Know
EXTD=
EXTT0=
EXTT1=
EXTT2=
EXTT3=
EXTT4=
EXTT5=
EXTT6=
EXTT7=
EXTT8=
EXTT9=
PLAYORDER=
